<svg xmlns="http://www.w3.org/2000/svg" height="24" viewBox="0 -960 960 960" width="24"><path d="M851.999-685.538v479.229q0 41.033-28.638 69.67-28.637 28.638-69.67 28.638H206.309q-41.033 0-69.67-28.638-28.638-28.637-28.638-69.67v-547.382q0-41.033 28.638-69.67 28.637-28.638 69.67-28.638h479.229l166.461 166.461ZM766-649.557 649.557-766H206.309q-5.385 0-8.847 3.462-3.462 3.462-3.462 8.847v547.382q0 5.385 3.462 8.847 3.462 3.462 8.847 3.462h547.382q5.385 0 8.847-3.462 3.462-3.462 3.462-8.847v-443.248ZM480.118-255.233q47.42 0 80.65-33.348 33.231-33.348 33.231-80.768T560.651-450q-33.348-33.23-80.769-33.23-47.42 0-80.65 33.348-33.231 33.348-33.231 80.768t33.348 80.651q33.348 33.23 80.769 33.23ZM241.386-550.616h360.459v-167.998H241.386v167.998ZM194-649.557V-194-766v116.443Z"/></svg>